<?xml version="1.0" standalone="no"?>
<!DOCTYPE svg PUBLIC "-//W3C//DTD SVG 20010904//EN"
 "http://www.w3.org/TR/2001/REC-SVG-20010904/DTD/svg10.dtd">
<svg version="1.0" xmlns="http://www.w3.org/2000/svg"
 width="512.000000pt" height="512.000000pt" viewBox="0 0 512.000000 512.000000"
 preserveAspectRatio="xMidYMid meet">

<g transform="translate(0.000000,512.000000) scale(0.100000,-0.100000)"
fill="#000000" stroke="none">
<path d="M397 5104 c-169 -41 -300 -158 -368 -329 -23 -59 -24 -66 -27 -450
l-3 -391 74 -33 c41 -18 109 -52 151 -76 l77 -44 57 22 c48 18 78 21 197 21
125 0 149 -3 220 -27 44 -15 109 -43 145 -64 77 -46 195 -154 261 -241 180
-238 299 -665 327 -1182 7 -124 6 -136 -11 -153 -25 -25 -96 -57 -128 -57
l-26 0 -7 142 c-21 437 -117 787 -287 1048 -67 102 -220 249 -304 289 -74 37
-190 71 -238 71 -28 0 -23 -6 77 -101 303 -287 532 -693 617 -1089 32 -149 32
-413 1 -548 -22 -95 -41 -145 -42 -109 0 26 -34 89 -62 113 -12 12 -51 36 -86
53 -54 27 -67 39 -83 76 -25 56 -33 98 -25 130 l7 26 56 -31 c89 -51 177 -119
185 -143 3 -12 7 -38 8 -57 l2 -35 10 35 c6 22 8 104 5 215 -5 143 -11 203
-31 290 -64 274 -192 538 -373 769 -75 94 -251 269 -337 334 -80 60 -81 60
-206 9 -78 -31 -168 -84 -207 -120 l-23 -20 0 -1337 0 -1336 73 8 c144 15 311
75 472 169 246 144 519 403 679 644 159 238 393 683 700 1330 231 488 454 898
597 1099 132 184 303 310 458 336 112 19 171 1 249 -73 36 -36 42 -47 42 -84
0 -34 -5 -46 -24 -58 -30 -20 -47 -13 -70 28 -52 91 -112 125 -192 107 -96
-21 -189 -103 -284 -250 -44 -68 -345 -670 -599 -1199 -301 -627 -549 -1066
-765 -1359 -96 -130 -359 -394 -472 -474 -254 -180 -468 -264 -738 -290 l-128
-13 4 -145 c4 -120 9 -156 28 -205 59 -155 165 -259 320 -316 l65 -24 2150 0
2150 0 68 27 c146 59 247 159 305 305 l27 68 3 371 3 370 -233 157 c-128 87
-274 186 -325 222 l-92 64 -16 -57 c-59 -200 -133 -532 -150 -672 -14 -113
-35 -159 -50 -110 -13 42 54 427 121 695 l45 180 -28 22 c-15 13 -63 49 -107
80 -69 50 -80 55 -90 41 -6 -9 -40 -58 -76 -110 -81 -116 -262 -299 -358 -363
-91 -59 -205 -108 -307 -130 -111 -25 -323 -17 -456 18 -110 29 -159 51 -159
72 0 21 36 19 131 -5 170 -44 366 -44 490 -1 218 74 404 250 560 528 27 48 49
92 49 96 0 21 -468 309 -673 413 -228 116 -393 158 -617 158 -277 0 -459 -61
-600 -203 -114 -115 -171 -253 -171 -416 0 -183 68 -335 224 -501 109 -117
224 -192 350 -228 90 -26 89 -66 -3 -66 -153 0 -382 132 -500 287 -103 136
-149 271 -150 436 -1 523 464 916 1045 883 202 -11 362 -60 610 -186 173 -88
281 -153 457 -279 l127 -89 31 76 c18 42 54 129 81 192 26 63 50 121 51 128 2
9 -28 23 -92 41 -352 101 -647 325 -761 577 -65 143 -82 344 -40 474 39 124
132 223 234 251 61 16 173 7 224 -19 97 -50 152 -126 153 -209 0 -59 -28 -87
-78 -78 -46 8 -58 19 -75 70 -19 57 -62 78 -147 72 -112 -7 -198 -58 -243
-142 -17 -33 -21 -57 -20 -135 1 -194 71 -350 228 -506 135 -134 309 -231 503
-280 134 -34 149 -33 169 14 115 278 332 723 453 932 80 137 169 274 237 363
l44 57 -3 378 -3 377 -27 68 c-67 167 -198 281 -370 322 -92 22 -4231 21
-4321 -1z"/>
<path d="M0 3699 l0 -131 58 49 c31 28 76 62 100 78 23 15 42 31 42 36 0 8
-114 66 -172 88 l-28 11 0 -131z"/>
<path d="M5058 3664 c-79 -139 -143 -271 -233 -479 -116 -270 -256 -618 -250
-623 2 -2 43 -1 91 4 l87 9 99 220 c54 121 136 301 183 400 l85 180 -2 194 -3
193 -57 -98z"/>
<path d="M5081 3157 c-39 -84 -234 -523 -244 -550 -8 -22 4 -21 171 25 l112
31 0 284 c0 155 -1 283 -2 283 -2 -1 -18 -33 -37 -73z"/>
<path d="M5005 2504 c-60 -12 -137 -25 -169 -30 l-59 -9 -38 -99 c-21 -54 -41
-107 -44 -116 -4 -13 5 -21 39 -34 24 -9 51 -25 60 -35 15 -17 14 -20 -26 -57
-24 -22 -73 -63 -109 -93 -67 -53 -67 -53 -95 -148 l-28 -96 29 -24 c161 -130
543 -409 551 -401 2 3 3 265 2 584 l-3 579 -110 -21z"/>
<path d="M4513 2433 c-22 -54 -123 -283 -168 -381 l-38 -83 22 -15 c12 -9 52
-40 89 -70 l67 -54 31 98 30 97 -25 48 c-21 42 -23 52 -13 85 19 62 66 127
103 142 19 7 35 14 37 16 4 2 62 144 62 150 0 2 -41 4 -91 4 l-90 0 -16 -37z"/>
</g>
</svg>
